<mxfile host="app.diagrams.net" modified="2024-06-25T21:50:35.054Z" agent="Mozilla/5.0 (Windows NT 10.0; Win64; x64) AppleWebKit/537.36 (KHTML, like Gecko) Chrome/126.0.0.0 Safari/537.36" etag="LGL7B88VHGOAb_-h-XFD" version="24.6.3" type="google">
  <diagram name="Página-1" id="D4xfMR_tDfcY7prQFISW">
    <mxGraphModel grid="1" page="1" gridSize="10" guides="1" tooltips="1" connect="1" arrows="1" fold="1" pageScale="1" pageWidth="1169" pageHeight="827" math="0" shadow="0">
      <root>
        <mxCell id="0" />
        <mxCell id="1" parent="0" />
        <mxCell id="BfA_5P8bwOXLROu7K_P--1" value="&lt;h1 style=&quot;margin-top: 0px;&quot;&gt;&lt;font style=&quot;font-size: 20px;&quot;&gt;Solicitar un Crédito&lt;/font&gt;&lt;/h1&gt;&lt;p style=&quot;font-size: 11px;&quot;&gt;Diagrama de secuencia para solicitar un crédito bancario.&lt;/p&gt;" style="text;html=1;whiteSpace=wrap;overflow=hidden;rounded=0;fillColor=#eeeeee;strokeColor=#36393d;fontSize=11;" vertex="1" parent="1">
          <mxGeometry x="10" y="10" width="490" height="70" as="geometry" />
        </mxCell>
        <mxCell id="BfA_5P8bwOXLROu7K_P--43" value="" style="shape=umlLifeline;perimeter=lifelinePerimeter;whiteSpace=wrap;html=1;container=1;dropTarget=0;collapsible=0;recursiveResize=0;outlineConnect=0;portConstraint=eastwest;newEdgeStyle={&quot;curved&quot;:0,&quot;rounded&quot;:0};participant=umlActor;" vertex="1" parent="1">
          <mxGeometry x="100" y="130" width="20" height="570" as="geometry" />
        </mxCell>
        <mxCell id="BfA_5P8bwOXLROu7K_P--57" value="" style="html=1;points=[[0,0,0,0,5],[0,1,0,0,-5],[1,0,0,0,5],[1,1,0,0,-5]];perimeter=orthogonalPerimeter;outlineConnect=0;targetShapes=umlLifeline;portConstraint=eastwest;newEdgeStyle={&quot;curved&quot;:0,&quot;rounded&quot;:0};fillColor=#ffcc99;strokeColor=#36393d;" vertex="1" parent="BfA_5P8bwOXLROu7K_P--43">
          <mxGeometry x="5" y="70" width="10" height="30" as="geometry" />
        </mxCell>
        <mxCell id="bcULmBKe0mkSa0cwNDqA-21" value="" style="html=1;points=[[0,0,0,0,5],[0,1,0,0,-5],[1,0,0,0,5],[1,1,0,0,-5]];perimeter=orthogonalPerimeter;outlineConnect=0;targetShapes=umlLifeline;portConstraint=eastwest;newEdgeStyle={&quot;curved&quot;:0,&quot;rounded&quot;:0};fillColor=#ffcc99;strokeColor=#36393d;" vertex="1" parent="BfA_5P8bwOXLROu7K_P--43">
          <mxGeometry x="5" y="526" width="10" height="30" as="geometry" />
        </mxCell>
        <mxCell id="BfA_5P8bwOXLROu7K_P--44" value="Sistema&lt;br&gt;Bancario" style="shape=umlLifeline;perimeter=lifelinePerimeter;whiteSpace=wrap;html=1;container=1;dropTarget=0;collapsible=0;recursiveResize=0;outlineConnect=0;portConstraint=eastwest;newEdgeStyle={&quot;curved&quot;:0,&quot;rounded&quot;:0};" vertex="1" parent="1">
          <mxGeometry x="240" y="130" width="100" height="570" as="geometry" />
        </mxCell>
        <mxCell id="BfA_5P8bwOXLROu7K_P--56" value="" style="html=1;points=[[0,0,0,0,5],[0,1,0,0,-5],[1,0,0,0,5],[1,1,0,0,-5]];perimeter=orthogonalPerimeter;outlineConnect=0;targetShapes=umlLifeline;portConstraint=eastwest;newEdgeStyle={&quot;curved&quot;:0,&quot;rounded&quot;:0};fillColor=#cce5ff;strokeColor=#36393d;" vertex="1" parent="BfA_5P8bwOXLROu7K_P--44">
          <mxGeometry x="45" y="80" width="10" height="180" as="geometry" />
        </mxCell>
        <mxCell id="bcULmBKe0mkSa0cwNDqA-9" value="" style="html=1;points=[[0,0,0,0,5],[0,1,0,0,-5],[1,0,0,0,5],[1,1,0,0,-5]];perimeter=orthogonalPerimeter;outlineConnect=0;targetShapes=umlLifeline;portConstraint=eastwest;newEdgeStyle={&quot;curved&quot;:0,&quot;rounded&quot;:0};fillColor=#dae8fc;strokeColor=#000000;fillStyle=auto;" vertex="1" parent="BfA_5P8bwOXLROu7K_P--44">
          <mxGeometry x="45" y="310" width="10" height="20" as="geometry" />
        </mxCell>
        <mxCell id="bcULmBKe0mkSa0cwNDqA-10" value="Calcular capacidad crediticia" style="html=1;align=left;spacingLeft=2;endArrow=block;rounded=0;edgeStyle=orthogonalEdgeStyle;curved=0;rounded=0;" edge="1" parent="BfA_5P8bwOXLROu7K_P--44" target="bcULmBKe0mkSa0cwNDqA-9">
          <mxGeometry relative="1" as="geometry">
            <mxPoint x="50" y="290" as="sourcePoint" />
            <Array as="points">
              <mxPoint x="80" y="320" />
            </Array>
          </mxGeometry>
        </mxCell>
        <mxCell id="bcULmBKe0mkSa0cwNDqA-13" value="" style="html=1;points=[[0,0,0,0,5],[0,1,0,0,-5],[1,0,0,0,5],[1,1,0,0,-5]];perimeter=orthogonalPerimeter;outlineConnect=0;targetShapes=umlLifeline;portConstraint=eastwest;newEdgeStyle={&quot;curved&quot;:0,&quot;rounded&quot;:0};fillColor=#cce5ff;strokeColor=#36393d;" vertex="1" parent="BfA_5P8bwOXLROu7K_P--44">
          <mxGeometry x="45" y="360" width="10" height="60" as="geometry" />
        </mxCell>
        <mxCell id="bcULmBKe0mkSa0cwNDqA-20" value="" style="html=1;points=[[0,0,0,0,5],[0,1,0,0,-5],[1,0,0,0,5],[1,1,0,0,-5]];perimeter=orthogonalPerimeter;outlineConnect=0;targetShapes=umlLifeline;portConstraint=eastwest;newEdgeStyle={&quot;curved&quot;:0,&quot;rounded&quot;:0};fillColor=#cce5ff;strokeColor=#36393d;" vertex="1" parent="BfA_5P8bwOXLROu7K_P--44">
          <mxGeometry x="45" y="526" width="10" height="30" as="geometry" />
        </mxCell>
        <mxCell id="BfA_5P8bwOXLROu7K_P--45" value="Cliente" style="text;align=center;fontStyle=1;verticalAlign=middle;spacingLeft=3;spacingRight=3;strokeColor=none;rotatable=0;points=[[0,0.5],[1,0.5]];portConstraint=eastwest;html=1;" vertex="1" parent="1">
          <mxGeometry x="70" y="104" width="80" height="26" as="geometry" />
        </mxCell>
        <mxCell id="BfA_5P8bwOXLROu7K_P--48" value="" style="shape=umlLifeline;perimeter=lifelinePerimeter;whiteSpace=wrap;html=1;container=1;dropTarget=0;collapsible=0;recursiveResize=0;outlineConnect=0;portConstraint=eastwest;newEdgeStyle={&quot;curved&quot;:0,&quot;rounded&quot;:0};participant=umlEntity;" vertex="1" parent="1">
          <mxGeometry x="610" y="130" width="40" height="570" as="geometry" />
        </mxCell>
        <mxCell id="bcULmBKe0mkSa0cwNDqA-2" value="" style="html=1;points=[[0,0,0,0,5],[0,1,0,0,-5],[1,0,0,0,5],[1,1,0,0,-5]];perimeter=orthogonalPerimeter;outlineConnect=0;targetShapes=umlLifeline;portConstraint=eastwest;newEdgeStyle={&quot;curved&quot;:0,&quot;rounded&quot;:0};fillColor=#cdeb8b;strokeColor=#36393d;" vertex="1" parent="BfA_5P8bwOXLROu7K_P--48">
          <mxGeometry x="15" y="150" width="10" height="110" as="geometry" />
        </mxCell>
        <mxCell id="bcULmBKe0mkSa0cwNDqA-17" value="" style="html=1;points=[[0,0,0,0,5],[0,1,0,0,-5],[1,0,0,0,5],[1,1,0,0,-5]];perimeter=orthogonalPerimeter;outlineConnect=0;targetShapes=umlLifeline;portConstraint=eastwest;newEdgeStyle={&quot;curved&quot;:0,&quot;rounded&quot;:0};fillColor=#cdeb8b;strokeColor=#36393d;" vertex="1" parent="BfA_5P8bwOXLROu7K_P--48">
          <mxGeometry x="15" y="470" width="10" height="30" as="geometry" />
        </mxCell>
        <mxCell id="BfA_5P8bwOXLROu7K_P--49" value="Base de Datos" style="text;align=center;fontStyle=1;verticalAlign=middle;spacingLeft=3;spacingRight=3;strokeColor=none;rotatable=0;points=[[0,0.5],[1,0.5]];portConstraint=eastwest;html=1;" vertex="1" parent="1">
          <mxGeometry x="585" y="104" width="90" height="26" as="geometry" />
        </mxCell>
        <mxCell id="BfA_5P8bwOXLROu7K_P--55" value="Solicitar crédito" style="html=1;verticalAlign=bottom;endArrow=block;curved=0;rounded=0;" edge="1" parent="1">
          <mxGeometry width="80" relative="1" as="geometry">
            <mxPoint x="115" y="221" as="sourcePoint" />
            <mxPoint x="285" y="221" as="targetPoint" />
          </mxGeometry>
        </mxCell>
        <mxCell id="BfA_5P8bwOXLROu7K_P--58" value="Verificar datos personales" style="html=1;verticalAlign=bottom;endArrow=block;curved=0;rounded=0;" edge="1" parent="1">
          <mxGeometry width="80" relative="1" as="geometry">
            <mxPoint x="295" y="292" as="sourcePoint" />
            <mxPoint x="624.9999999999998" y="292" as="targetPoint" />
          </mxGeometry>
        </mxCell>
        <mxCell id="BfA_5P8bwOXLROu7K_P--61" value="alt" style="shape=umlFrame;whiteSpace=wrap;html=1;pointerEvents=0;width=80;height=15;fillColor=#f8cecc;strokeColor=#b85450;" vertex="1" parent="1">
          <mxGeometry x="200" y="230" width="500" height="170" as="geometry" />
        </mxCell>
        <mxCell id="BfA_5P8bwOXLROu7K_P--62" value="[Verificar información del cliente]" style="text;align=center;fontStyle=1;verticalAlign=middle;spacingLeft=3;spacingRight=3;strokeColor=#b85450;rotatable=0;points=[[0,0.5],[1,0.5]];portConstraint=eastwest;html=1;fillColor=#f8cecc;fontSize=10;" vertex="1" parent="1">
          <mxGeometry x="530" y="230" width="170" height="20" as="geometry" />
        </mxCell>
        <mxCell id="BfA_5P8bwOXLROu7K_P--80" value="Enviar solicitud de crédito" style="html=1;verticalAlign=bottom;endArrow=block;curved=0;rounded=0;" edge="1" parent="1">
          <mxGeometry width="80" relative="1" as="geometry">
            <mxPoint x="295" y="509" as="sourcePoint" />
            <mxPoint x="475" y="509" as="targetPoint" />
          </mxGeometry>
        </mxCell>
        <mxCell id="BfA_5P8bwOXLROu7K_P--81" value="Aprobar/Rechazar solicitud" style="html=1;verticalAlign=bottom;endArrow=block;curved=0;rounded=0;" edge="1" parent="1">
          <mxGeometry width="80" relative="1" as="geometry">
            <mxPoint x="475" y="537" as="sourcePoint" />
            <mxPoint x="295" y="537" as="targetPoint" />
          </mxGeometry>
        </mxCell>
        <mxCell id="BfA_5P8bwOXLROu7K_P--86" value="Notificar resultado de&lt;br&gt;la solicitud" style="html=1;verticalAlign=bottom;endArrow=block;curved=0;rounded=0;" edge="1" parent="1">
          <mxGeometry width="80" relative="1" as="geometry">
            <mxPoint x="285" y="675.9999999999998" as="sourcePoint" />
            <mxPoint x="115" y="675.9999999999998" as="targetPoint" />
          </mxGeometry>
        </mxCell>
        <mxCell id="bcULmBKe0mkSa0cwNDqA-1" value="Gerente de&lt;br&gt;Crédito" style="shape=umlLifeline;perimeter=lifelinePerimeter;whiteSpace=wrap;html=1;container=1;dropTarget=0;collapsible=0;recursiveResize=0;outlineConnect=0;portConstraint=eastwest;newEdgeStyle={&quot;curved&quot;:0,&quot;rounded&quot;:0};" vertex="1" parent="1">
          <mxGeometry x="430" y="130" width="100" height="570" as="geometry" />
        </mxCell>
        <mxCell id="bcULmBKe0mkSa0cwNDqA-14" value="" style="html=1;points=[[0,0,0,0,5],[0,1,0,0,-5],[1,0,0,0,5],[1,1,0,0,-5]];perimeter=orthogonalPerimeter;outlineConnect=0;targetShapes=umlLifeline;portConstraint=eastwest;newEdgeStyle={&quot;curved&quot;:0,&quot;rounded&quot;:0};fillColor=#fff2cc;strokeColor=#000000;" vertex="1" parent="bcULmBKe0mkSa0cwNDqA-1">
          <mxGeometry x="45" y="360" width="10" height="60" as="geometry" />
        </mxCell>
        <mxCell id="bcULmBKe0mkSa0cwNDqA-4" value="Datos verificados" style="html=1;verticalAlign=bottom;endArrow=block;curved=0;rounded=0;dashed=1;" edge="1" parent="1">
          <mxGeometry width="80" relative="1" as="geometry">
            <mxPoint x="624.9999999999998" y="318" as="sourcePoint" />
            <mxPoint x="295" y="318" as="targetPoint" />
          </mxGeometry>
        </mxCell>
        <mxCell id="bcULmBKe0mkSa0cwNDqA-5" value="Verificar historial crediticio" style="html=1;verticalAlign=bottom;endArrow=block;curved=0;rounded=0;" edge="1" parent="1">
          <mxGeometry width="80" relative="1" as="geometry">
            <mxPoint x="295" y="350" as="sourcePoint" />
            <mxPoint x="624.9999999999998" y="350" as="targetPoint" />
          </mxGeometry>
        </mxCell>
        <mxCell id="bcULmBKe0mkSa0cwNDqA-6" value="Historial verificado" style="html=1;verticalAlign=bottom;endArrow=block;curved=0;rounded=0;dashed=1;" edge="1" parent="1">
          <mxGeometry width="80" relative="1" as="geometry">
            <mxPoint x="624.9999999999998" y="380" as="sourcePoint" />
            <mxPoint x="295" y="380" as="targetPoint" />
          </mxGeometry>
        </mxCell>
        <mxCell id="bcULmBKe0mkSa0cwNDqA-7" value="&lt;b&gt;alt&lt;/b&gt;" style="shape=umlFrame;whiteSpace=wrap;html=1;pointerEvents=0;width=80;height=15;fillColor=#f8cecc;strokeColor=#b85450;" vertex="1" parent="1">
          <mxGeometry x="200" y="410" width="500" height="60" as="geometry" />
        </mxCell>
        <mxCell id="bcULmBKe0mkSa0cwNDqA-8" value="[Evaluar capacidad crediticia]" style="text;align=center;fontStyle=1;verticalAlign=middle;spacingLeft=3;spacingRight=3;strokeColor=#b85450;rotatable=0;points=[[0,0.5],[1,0.5]];portConstraint=eastwest;html=1;fillColor=#f8cecc;fontSize=10;" vertex="1" parent="1">
          <mxGeometry x="530" y="410" width="170" height="20" as="geometry" />
        </mxCell>
        <mxCell id="bcULmBKe0mkSa0cwNDqA-11" value="&lt;b&gt;alt&lt;/b&gt;" style="shape=umlFrame;whiteSpace=wrap;html=1;pointerEvents=0;width=80;height=15;fillColor=#f8cecc;strokeColor=#b85450;" vertex="1" parent="1">
          <mxGeometry x="200" y="480" width="500" height="80" as="geometry" />
        </mxCell>
        <mxCell id="bcULmBKe0mkSa0cwNDqA-12" value="[Enviar solicitud]" style="text;align=center;fontStyle=1;verticalAlign=middle;spacingLeft=3;spacingRight=3;strokeColor=#b85450;rotatable=0;points=[[0,0.5],[1,0.5]];portConstraint=eastwest;html=1;fillColor=#f8cecc;fontSize=10;" vertex="1" parent="1">
          <mxGeometry x="530" y="480" width="170" height="20" as="geometry" />
        </mxCell>
        <mxCell id="bcULmBKe0mkSa0cwNDqA-15" value="&lt;b&gt;alt&lt;/b&gt;" style="shape=umlFrame;whiteSpace=wrap;html=1;pointerEvents=0;width=80;height=15;fillColor=#f8cecc;strokeColor=#b85450;" vertex="1" parent="1">
          <mxGeometry x="200" y="570" width="500" height="70" as="geometry" />
        </mxCell>
        <mxCell id="bcULmBKe0mkSa0cwNDqA-16" value="[Actualizar estado de la solicitud]" style="text;align=center;fontStyle=1;verticalAlign=middle;spacingLeft=3;spacingRight=3;strokeColor=#b85450;rotatable=0;points=[[0,0.5],[1,0.5]];portConstraint=eastwest;html=1;fillColor=#f8cecc;fontSize=10;" vertex="1" parent="1">
          <mxGeometry x="530" y="570" width="170" height="20" as="geometry" />
        </mxCell>
        <mxCell id="bcULmBKe0mkSa0cwNDqA-18" value="" style="html=1;points=[[0,0,0,0,5],[0,1,0,0,-5],[1,0,0,0,5],[1,1,0,0,-5]];perimeter=orthogonalPerimeter;outlineConnect=0;targetShapes=umlLifeline;portConstraint=eastwest;newEdgeStyle={&quot;curved&quot;:0,&quot;rounded&quot;:0};fillColor=#cce5ff;strokeColor=#36393d;" vertex="1" parent="1">
          <mxGeometry x="285" y="580" width="10" height="50" as="geometry" />
        </mxCell>
        <mxCell id="bcULmBKe0mkSa0cwNDqA-19" value="Actualizar estado de la solicitud" style="html=1;verticalAlign=bottom;endArrow=block;curved=0;rounded=0;" edge="1" parent="1">
          <mxGeometry width="80" relative="1" as="geometry">
            <mxPoint x="295" y="615" as="sourcePoint" />
            <mxPoint x="624.9999999999998" y="615" as="targetPoint" />
          </mxGeometry>
        </mxCell>
      </root>
    </mxGraphModel>
  </diagram>
</mxfile>
